<svg width="28.000000" height="28.000000" viewBox="0 0 28 28" fill="none" xmlns="http://www.w3.org/2000/svg" xmlns:xlink="http://www.w3.org/1999/xlink">
	<desc>
			Created with Pixso.
	</desc>
	<defs/>
	<path id="facebook" d="M0 4.37C0 1.95 1.95 0 4.37 0L23.62 0C26.04 0 28 1.95 28 4.37L28 23.62C28 26.04 26.04 28 23.62 28L4.37 28C1.95 28 0 26.04 0 23.62L0 4.37ZM14 7C17.84 7 21 10.14 21 14C21 17.5 18.46 20.47 14.96 21L14.96 16.01L16.62 16.01L16.97 14L15.04 14L15.04 12.68C15.04 12.16 15.31 11.63 16.18 11.63L17.06 11.63L17.06 9.88C17.06 9.88 16.27 9.71 15.48 9.71C13.91 9.71 12.86 10.67 12.86 12.42L12.86 14L11.11 14L11.11 16.01L12.86 16.01L12.86 20.91C9.53 20.38 7 17.5 7 14C7 10.14 10.15 7 14 7Z" fill="#262626" fill-opacity="1.000000" fill-rule="evenodd"/>
</svg>
