<svg width="28.000000" height="28.000000" viewBox="0 0 28 28" fill="none" xmlns="http://www.w3.org/2000/svg" xmlns:xlink="http://www.w3.org/1999/xlink">
	<desc>
			Created with Pixso.
	</desc>
	<defs/>
	<path id="linkedin" d="M0 4.37C0 1.95 1.95 0 4.37 0L23.62 0C26.04 0 28 1.95 28 4.37L28 23.62C28 26.04 26.04 28 23.62 28L4.37 28C1.95 28 0 26.04 0 23.62L0 4.37ZM7.17 11.63L7.17 21L10.15 21L10.15 11.63L7.17 11.63ZM7 8.66C7 9.62 7.7 10.32 8.66 10.32C9.62 10.32 10.32 9.62 10.32 8.66C10.32 7.69 9.62 7 8.66 7C7.78 7 7 7.69 7 8.66ZM18.02 21L20.82 21L20.82 15.22C20.82 12.33 19.07 11.37 17.41 11.37C15.92 11.37 14.87 12.33 14.61 12.95L14.61 11.63L11.81 11.63L11.81 21L14.78 21L14.78 16.01C14.78 14.7 15.66 14 16.53 14C17.41 14 18.02 14.43 18.02 15.92L18.02 21Z" fill="#262626" fill-opacity="1.000000" fill-rule="evenodd"/>
</svg>
