<svg width="28.000000" height="28.000000" viewBox="0 0 28 28" fill="none" xmlns="http://www.w3.org/2000/svg" xmlns:xlink="http://www.w3.org/1999/xlink">
	<desc>
			Created with Pixso.
	</desc>
	<defs/>
	<path id="twitter" d="M0 4.37C0 1.95 1.95 0 4.37 0L23.62 0C26.04 0 28 1.95 28 4.37L28 23.62C28 26.04 26.04 28 23.62 28L4.37 28C1.95 28 0 26.04 0 23.62L0 4.37ZM19.33 10.06C19.95 9.97 20.47 9.88 21 9.62C20.65 10.23 20.12 10.76 19.51 11.11C19.68 15.22 16.71 19.68 11.37 19.68C9.79 19.68 8.31 19.16 7 18.37C8.48 18.54 10.06 18.11 11.11 17.32C9.79 17.32 8.75 16.45 8.4 15.31C8.83 15.39 9.27 15.31 9.71 15.22C8.4 14.87 7.43 13.64 7.43 12.33C7.87 12.51 8.31 12.68 8.75 12.68C7.52 11.81 7.08 10.14 7.87 8.83C9.36 10.58 11.46 11.72 13.82 11.81C13.38 10.06 14.78 8.31 16.62 8.31C17.41 8.31 18.2 8.66 18.72 9.18C19.42 9.01 20.03 8.83 20.56 8.48C20.38 9.18 19.95 9.71 19.33 10.06Z" fill="#262626" fill-opacity="1.000000" fill-rule="evenodd"/>
</svg>
